<svg width="1440" height="650" viewBox="0 0 1440 650" fill="none" xmlns="http://www.w3.org/2000/svg">
<g filter="url(#filter0_f_2889_2732)">
<path fill-rule="evenodd" clip-rule="evenodd" d="M-57.2718 219.213C-73.1015 219.044 -89.1925 218.871 -106 217.98L-101.894 160.675C-90.6782 161.27 -78.0784 161.398 -64.3875 161.537C-21.3476 161.974 32.4754 162.52 87.9745 178.025C156.272 197.105 192.575 240.778 222.379 278.606C224.085 280.771 225.77 282.916 227.439 285.041C256.238 321.704 280.17 352.171 321.443 371.044C337.715 378.484 351.433 384.985 363.497 390.703C389.789 403.163 408.224 411.9 428.113 418.522C454.557 427.327 483.276 432.005 536.194 432.158C579.63 432.283 629.836 417.592 681.548 394.778C732.721 372.202 782.131 343.155 823.478 317.56C926.364 253.87 1015.41 204.007 1136.69 212.481C1251.95 220.534 1378.33 265.34 1495.52 335.671C1521.46 351.233 1550.59 373.781 1572.49 391.69C1583.62 400.787 1593.21 408.96 1600.03 414.866C1603.44 417.821 1606.17 420.217 1608.05 421.886C1609 422.721 1609.73 423.374 1610.24 423.826C1610.49 424.051 1610.69 424.227 1610.82 424.349L1611.03 424.533L1611.04 424.546L1611.05 424.55C1611.05 424.552 1611.05 424.554 1586.93 444.393C1562.82 464.233 1562.82 464.234 1562.82 464.235L1562.68 464.111C1562.58 464.017 1562.41 463.871 1562.19 463.674C1561.75 463.282 1561.09 462.69 1560.22 461.92C1558.47 460.379 1555.91 458.125 1552.67 455.323C1546.2 449.714 1537.07 441.94 1526.52 433.307C1505.05 415.757 1478.93 395.715 1457.34 382.758C1346.81 316.424 1231.56 276.712 1131.29 269.706C1037.04 263.121 966.351 299.849 862.458 364.162C820.46 390.16 767.767 421.263 712.002 445.865C656.778 470.228 595.213 489.742 535.97 489.571C478.029 489.403 440.543 484.225 404.023 472.065C379.748 463.982 355.549 452.519 326.853 438.925C315.419 433.509 303.271 427.754 290.119 421.74C233.552 395.873 200.791 353.907 173.672 319.168C171.459 316.332 169.283 313.545 167.135 310.818C137.329 272.988 112 245.101 67.3618 232.631C22.3889 220.067 -16.5779 219.65 -57.2718 219.213Z" fill="url(#paint0_linear_2889_2732)"/>
</g>
<defs>
<filter id="filter0_f_2889_2732" x="-266" y="0.675293" width="2037.05" height="648.896" filterUnits="userSpaceOnUse" color-interpolation-filters="sRGB">
<feFlood flood-opacity="0" result="BackgroundImageFix"/>
<feBlend mode="normal" in="SourceGraphic" in2="BackgroundImageFix" result="shape"/>
<feGaussianBlur stdDeviation="80" result="effect1_foregroundBlur_2889_2732"/>
</filter>
<linearGradient id="paint0_linear_2889_2732" x1="-114.341" y1="183.21" x2="1571.84" y2="500.219" gradientUnits="userSpaceOnUse">
<stop stop-color="#004DFF"/>
<stop offset="0.464999" stop-color="#2D74FF"/>
<stop offset="1" stop-color="#0500FF"/>
</linearGradient>
</defs>
</svg>
